<?xml version="1.0" standalone="no"?>
<!DOCTYPE svg PUBLIC "-//W3C//DTD SVG 20010904//EN"
 "http://www.w3.org/TR/2001/REC-SVG-20010904/DTD/svg10.dtd">
<svg version="1.0" xmlns="http://www.w3.org/2000/svg"
 width="700.000000pt" height="700.000000pt" viewBox="0 0 700.000000 700.000000"
 preserveAspectRatio="xMidYMid meet">
<metadata>
Created by potrace 1.11, written by Peter Selinger 2001-2013
</metadata>
<g transform="translate(0.000000,700.000000) scale(0.100000,-0.100000)"
fill="#000000" stroke="none">
<path d="M3278 6995 c-2 -1 -39 -5 -83 -9 -89 -7 -144 -13 -225 -26 -30 -5
-75 -12 -100 -15 -24 -4 -47 -8 -51 -10 -3 -2 -21 -7 -40 -10 -328 -57 -805
-249 -1134 -456 -559 -351 -1009 -854 -1296 -1446 -32 -68 -59 -125 -59 -128
0 -3 -9 -24 -20 -48 -57 -123 -157 -435 -186 -582 -2 -11 -10 -54 -19 -95 -29
-146 -36 -199 -52 -370 -15 -163 -8 -596 12 -710 2 -14 6 -45 9 -70 9 -80 17
-134 26 -170 5 -19 12 -48 14 -65 27 -151 108 -417 186 -610 49 -123 173 -370
235 -468 30 -49 55 -90 55 -93 0 -3 4 -10 10 -17 5 -7 46 -64 91 -126 115
-164 186 -248 342 -409 186 -192 352 -330 574 -478 77 -52 145 -94 149 -94 4
0 15 -6 23 -14 28 -25 333 -174 461 -225 267 -106 554 -183 805 -216 22 -2 56
-7 75 -10 186 -26 698 -27 838 0 16 3 104 15 147 20 324 41 870 235 1167 415
37 22 70 40 73 40 3 0 11 5 18 10 7 6 62 43 122 83 253 168 492 376 678 592
33 39 63 72 67 75 17 13 181 236 245 335 219 336 406 779 481 1140 16 79 54
301 59 350 4 33 9 71 11 85 9 47 11 525 4 605 -13 130 -21 202 -25 227 -3 13
-8 43 -11 68 -9 69 -70 336 -97 425 -232 760 -689 1399 -1326 1854 -388 277
-840 478 -1289 572 -54 11 -106 22 -117 25 -11 2 -38 6 -60 9 -22 3 -51 7 -65
10 -13 2 -52 7 -86 11 -33 3 -74 8 -90 10 -32 5 -540 14 -546 9z"/>
</g>
</svg>
